<?xml version="1.0" encoding="UTF-8" standalone="no"?>
<svg
   version="1.1"
   width="24"
   height="24"
   viewBox="0 0 24 24"
   id="svg6"
   sodipodi:docname="deck.svg"
   inkscape:version="1.1.2 (0a00cf5339, 2022-02-04)"
   xmlns:inkscape="http://www.inkscape.org/namespaces/inkscape"
   xmlns:sodipodi="http://sodipodi.sourceforge.net/DTD/sodipodi-0.dtd"
   xmlns="http://www.w3.org/2000/svg"
   xmlns:svg="http://www.w3.org/2000/svg">
  <defs
     id="defs10" />
  <sodipodi:namedview
     id="namedview8"
     pagecolor="#ffffff"
     bordercolor="#666666"
     borderopacity="1.0"
     inkscape:pageshadow="2"
     inkscape:pageopacity="0.0"
     inkscape:pagecheckerboard="0"
     showgrid="false"
     inkscape:zoom="8.8680765"
     inkscape:cx="-18.267772"
     inkscape:cy="8.3445378"
     inkscape:window-width="1592"
     inkscape:window-height="977"
     inkscape:window-x="216"
     inkscape:window-y="60"
     inkscape:window-maximized="0"
     inkscape:current-layer="svg6" />
  <g
     class="jp-icon3 jp-icon-selectable"
     fill="#616161"
     id="g4"
     style="fill:#e5591f;fill-opacity:1">
    <path
       d="M11.19,2.25C11.97,2.26 12.71,2.73 13,3.5L18,15.45C18.09,15.71 18.14,16 18.13,16.25C18.11,17 17.65,17.74 16.9,18.05L9.53,21.1C9.27,21.22 9,21.25 8.74,21.25C7.97,21.23 7.24,20.77 6.93,20L1.97,8.05C1.55,7.04 2.04,5.87 3.06,5.45L10.42,2.4C10.67,2.31 10.93,2.25 11.19,2.25M14.67,2.25H16.12A2,2 0 0,1 18.12,4.25V10.6L14.67,2.25M20.13,3.79L21.47,4.36C22.5,4.78 22.97,5.94 22.56,6.96L20.13,12.82V3.79M11.19,4.22L3.8,7.29L8.77,19.3L16.17,16.24L11.19,4.22M8.65,8.54L11.88,10.95L11.44,14.96L8.21,12.54L8.65,8.54Z"
       id="path2"
       style="fill:#e5591f;fill-opacity:1" />
  </g>
</svg>
